<svg width="33" height="32" viewBox="0 0 33 32" fill="none" xmlns="http://www.w3.org/2000/svg">
<g clip-path="url(#clip0_938_322)">
<path fill-rule="evenodd" clip-rule="evenodd" d="M30.1667 9.06669C30.1667 9.65579 29.6891 10.1334 29.1 10.1334H26.9667V12.2667C26.9667 12.8558 26.4891 13.3334 25.9 13.3334H23.7667C23.1776 13.3334 22.7 12.8558 22.7 12.2667V10.1334H20.5667C19.9776 10.1334 19.5 9.65579 19.5 9.06669V6.93335C19.5 6.34425 19.9776 5.86669 20.5667 5.86669H22.7V3.73335C22.7 3.14425 23.1776 2.66669 23.7667 2.66669H25.9C26.4891 2.66669 26.9667 3.14425 26.9667 3.73335V5.86669H29.1C29.6891 5.86669 30.1667 6.34425 30.1667 6.93335V9.06669Z" stroke="#3877D3" style="stroke:#3877D3;stroke:color(display-p3 0.2196 0.4667 0.8275);stroke-opacity:1;" stroke-width="1.5" stroke-linecap="round" stroke-linejoin="round"/>
<path d="M12.8334 7.99998H14.1667" stroke="#3877D3" style="stroke:#3877D3;stroke:color(display-p3 0.2196 0.4667 0.8275);stroke-opacity:1;" stroke-width="1.5" stroke-linecap="round" stroke-linejoin="round"/>
<path d="M15.5 12H16.8333" stroke="#3877D3" style="stroke:#3877D3;stroke:color(display-p3 0.2196 0.4667 0.8275);stroke-opacity:1;" stroke-width="1.5" stroke-linecap="round" stroke-linejoin="round"/>
<path d="M15.5 3.95616H16.8333" stroke="#3877D3" style="stroke:#3877D3;stroke:color(display-p3 0.2196 0.4667 0.8275);stroke-opacity:1;" stroke-width="1.5" stroke-linecap="round" stroke-linejoin="round"/>
<path d="M28.8334 17.3333V19.2373C28.8337 20.1465 28.4728 21.0186 27.8301 21.6618C27.1874 22.3049 26.3156 22.6664 25.4064 22.6667H8.26137C7.35225 22.6667 6.48034 22.3056 5.83747 21.6628C5.19459 21.0199 4.83341 20.1481 4.83337 19.2389V7.428C4.83334 6.51887 5.19445 5.64697 5.83728 5.00409C6.4801 4.36122 7.35198 4.00004 8.26111 4H10.1667" stroke="#3877D3" style="stroke:#3877D3;stroke:color(display-p3 0.2196 0.4667 0.8275);stroke-opacity:1;" stroke-width="1.5" stroke-linecap="round" stroke-linejoin="round"/>
<path d="M19.5001 22.6667L20.1667 28" stroke="#3877D3" style="stroke:#3877D3;stroke:color(display-p3 0.2196 0.4667 0.8275);stroke-opacity:1;" stroke-width="1.5" stroke-linecap="round" stroke-linejoin="round"/>
<path d="M14.1667 22.6667L13.5001 28" stroke="#3877D3" style="stroke:#3877D3;stroke:color(display-p3 0.2196 0.4667 0.8275);stroke-opacity:1;" stroke-width="1.5" stroke-linecap="round" stroke-linejoin="round"/>
<path d="M11.6907 28H21.976" stroke="#3877D3" style="stroke:#3877D3;stroke:color(display-p3 0.2196 0.4667 0.8275);stroke-opacity:1;" stroke-width="1.5" stroke-linecap="round" stroke-linejoin="round"/>
</g>
<defs>
<clipPath id="clip0_938_322">
<rect width="32" height="32" fill="white" style="fill:white;fill-opacity:1;" transform="translate(0.833374)"/>
</clipPath>
</defs>
</svg>
