<svg width="18" height="18" viewBox="0 0 18 18" fill="none" xmlns="http://www.w3.org/2000/svg">
<g clip-path="url(#clip0_943_147)">
<path d="M11.5725 12.3775L12.36 11.59L9.5775 8.79V5.2725H8.5275V9.21L11.5725 12.3775ZM9 16C8.04333 16 7.13917 15.8162 6.2875 15.4487C5.43583 15.0812 4.69208 14.5796 4.05625 13.9437C3.42042 13.3079 2.91875 12.5642 2.55125 11.7125C2.18375 10.8608 2 9.95667 2 9C2 8.04333 2.18375 7.13917 2.55125 6.2875C2.91875 5.43583 3.42042 4.69208 4.05625 4.05625C4.69208 3.42042 5.43583 2.91875 6.2875 2.55125C7.13917 2.18375 8.04333 2 9 2C9.95667 2 10.8608 2.18375 11.7125 2.55125C12.5642 2.91875 13.3079 3.42042 13.9437 4.05625C14.5796 4.69208 15.0812 5.43583 15.4487 6.2875C15.8162 7.13917 16 8.04333 16 9C16 9.95667 15.8162 10.8608 15.4487 11.7125C15.0812 12.5642 14.5796 13.3079 13.9437 13.9437C13.3079 14.5796 12.5642 15.0812 11.7125 15.4487C10.8608 15.8162 9.95667 16 9 16ZM9 14.95C10.6333 14.95 12.0333 14.3667 13.2 13.2C14.3667 12.0333 14.95 10.6333 14.95 9C14.95 7.36667 14.3667 5.96667 13.2 4.8C12.0333 3.63333 10.6333 3.05 9 3.05C7.36667 3.05 5.96667 3.63333 4.8 4.8C3.63333 5.96667 3.05 7.36667 3.05 9C3.05 10.6333 3.63333 12.0333 4.8 13.2C5.96667 14.3667 7.36667 14.95 9 14.95Z" fill="#142635" style="fill:#142635;fill:color(display-p3 0.0784 0.1490 0.2078);fill-opacity:1;"/>
</g>
<defs>
<clipPath id="clip0_943_147">
<rect width="18" height="18" fill="white" style="fill:white;fill-opacity:1;"/>
</clipPath>
</defs>
</svg>
