<svg width="19" height="18" viewBox="0 0 19 18" fill="none" xmlns="http://www.w3.org/2000/svg">
<g clip-path="url(#clip0_943_149)">
<path d="M12.2391 12.3775L13.0266 11.59L10.2441 8.79V5.2725H9.19413V9.21L12.2391 12.3775ZM9.66663 16C8.70996 16 7.80579 15.8162 6.95413 15.4487C6.10246 15.0812 5.35871 14.5796 4.72288 13.9437C4.08704 13.3079 3.58538 12.5642 3.21788 11.7125C2.85038 10.8608 2.66663 9.95667 2.66663 9C2.66663 8.04333 2.85038 7.13917 3.21788 6.2875C3.58538 5.43583 4.08704 4.69208 4.72288 4.05625C5.35871 3.42042 6.10246 2.91875 6.95413 2.55125C7.80579 2.18375 8.70996 2 9.66663 2C10.6233 2 11.5275 2.18375 12.3791 2.55125C13.2308 2.91875 13.9745 3.42042 14.6104 4.05625C15.2462 4.69208 15.7479 5.43583 16.1154 6.2875C16.4829 7.13917 16.6666 8.04333 16.6666 9C16.6666 9.95667 16.4829 10.8608 16.1154 11.7125C15.7479 12.5642 15.2462 13.3079 14.6104 13.9437C13.9745 14.5796 13.2308 15.0812 12.3791 15.4487C11.5275 15.8162 10.6233 16 9.66663 16ZM9.66663 14.95C11.3 14.95 12.7 14.3667 13.8666 13.2C15.0333 12.0333 15.6166 10.6333 15.6166 9C15.6166 7.36667 15.0333 5.96667 13.8666 4.8C12.7 3.63333 11.3 3.05 9.66663 3.05C8.03329 3.05 6.63329 3.63333 5.46663 4.8C4.29996 5.96667 3.71663 7.36667 3.71663 9C3.71663 10.6333 4.29996 12.0333 5.46663 13.2C6.63329 14.3667 8.03329 14.95 9.66663 14.95Z" fill="#142635" style="fill:#142635;fill:color(display-p3 0.0784 0.1490 0.2078);fill-opacity:1;"/>
</g>
<defs>
<clipPath id="clip0_943_149">
<rect width="18" height="18" fill="white" style="fill:white;fill-opacity:1;" transform="translate(0.666626)"/>
</clipPath>
</defs>
</svg>
