<svg width="27" height="22" viewBox="0 0 27 22" fill="none" xmlns="http://www.w3.org/2000/svg">
<g clip-path="url(#clip0_949_170)">
<path d="M2.4 19.5501C0.9 17.9001 0 16.1 0 13.1C0 7.85005 3.75 3.20005 9 0.800049L10.35 2.75005C5.4 5.45005 4.35 8.90005 4.05 11.15C4.8 10.7 5.85 10.55 6.9 10.7C9.6 11 11.7 13.1 11.7 15.95C11.7 17.3 11.1 18.65 10.2 19.7C9.15 20.75 7.95 21.2 6.45 21.2C4.8 21.2 3.3 20.4501 2.4 19.5501ZM17.4 19.5501C15.9 17.9001 15 16.1 15 13.1C15 7.85005 18.75 3.20005 24 0.800049L25.35 2.75005C20.4 5.45005 19.35 8.90005 19.05 11.15C19.8 10.7 20.85 10.55 21.9 10.7C24.6 11 26.7 13.1 26.7 15.95C26.7 17.3 26.1 18.65 25.2 19.7C24.3 20.75 22.95 21.2 21.45 21.2C19.8 21.2 18.3 20.4501 17.4 19.5501Z" fill="#9A9999" style="fill:#9A9999;fill:color(display-p3 0.6046 0.5982 0.5982);fill-opacity:1;"/>
</g>
<defs>
<clipPath id="clip0_949_170">
<rect width="26.7" height="20.4" fill="white" style="fill:white;fill-opacity:1;" transform="translate(0 0.800049)"/>
</clipPath>
</defs>
</svg>
