<svg width="27" height="21" viewBox="0 0 27 21" fill="none" xmlns="http://www.w3.org/2000/svg">
<g clip-path="url(#clip0_949_168)">
<path d="M2.4 18.75C0.9 17.1 0 15.3 0 12.3C0 7.05 3.75 2.4 9 0L10.35 1.95C5.4 4.65 4.35 8.1 4.05 10.35C4.8 9.9 5.85 9.75 6.9 9.9C9.6 10.2 11.7 12.3 11.7 15.15C11.7 16.5 11.1 17.85 10.2 18.9C9.15 19.95 7.95 20.4 6.45 20.4C4.8 20.4 3.3 19.65 2.4 18.75ZM17.4 18.75C15.9 17.1 15 15.3 15 12.3C15 7.05 18.75 2.4 24 0L25.35 1.95C20.4 4.65 19.35 8.1 19.05 10.35C19.8 9.9 20.85 9.75 21.9 9.9C24.6 10.2 26.7 12.3 26.7 15.15C26.7 16.5 26.1 17.85 25.2 18.9C24.3 19.95 22.95 20.4 21.45 20.4C19.8 20.4 18.3 19.65 17.4 18.75Z" fill="#9A9999" style="fill:#9A9999;fill:color(display-p3 0.6046 0.5982 0.5982);fill-opacity:1;"/>
</g>
<defs>
<clipPath id="clip0_949_168">
<rect width="26.7" height="20.4" fill="white" style="fill:white;fill-opacity:1;"/>
</clipPath>
</defs>
</svg>
