<svg width="27" height="21" viewBox="0 0 27 21" fill="none" xmlns="http://www.w3.org/2000/svg">
<g clip-path="url(#clip0_949_169)">
<path d="M2.4 19.1499C0.9 17.4999 0 15.6999 0 12.6999C0 7.4499 3.75 2.7999 9 0.399902L10.35 2.3499C5.4 5.0499 4.35 8.4999 4.05 10.7499C4.8 10.2999 5.85 10.1499 6.9 10.2999C9.6 10.5999 11.7 12.6999 11.7 15.5499C11.7 16.8999 11.1 18.2499 10.2 19.2999C9.15 20.3499 7.95 20.7999 6.45 20.7999C4.8 20.7999 3.3 20.0499 2.4 19.1499ZM17.4 19.1499C15.9 17.4999 15 15.6999 15 12.6999C15 7.4499 18.75 2.7999 24 0.399902L25.35 2.3499C20.4 5.0499 19.35 8.4999 19.05 10.7499C19.8 10.2999 20.85 10.1499 21.9 10.2999C24.6 10.5999 26.7 12.6999 26.7 15.5499C26.7 16.8999 26.1 18.2499 25.2 19.2999C24.3 20.3499 22.95 20.7999 21.45 20.7999C19.8 20.7999 18.3 20.0499 17.4 19.1499Z" fill="#9A9999" style="fill:#9A9999;fill:color(display-p3 0.6046 0.5982 0.5982);fill-opacity:1;"/>
</g>
<defs>
<clipPath id="clip0_949_169">
<rect width="26.7" height="20.4" fill="white" style="fill:white;fill-opacity:1;" transform="translate(0 0.399902)"/>
</clipPath>
</defs>
</svg>
