<svg width="19" height="18" viewBox="0 0 19 18" fill="none" xmlns="http://www.w3.org/2000/svg">
<g clip-path="url(#clip0_943_151)">
<path d="M11.9059 12.3775L12.6934 11.59L9.91087 8.79V5.2725H8.86087V9.21L11.9059 12.3775ZM9.33337 16C8.37671 16 7.47254 15.8162 6.62087 15.4487C5.76921 15.0812 5.02546 14.5796 4.38962 13.9437C3.75379 13.3079 3.25212 12.5642 2.88462 11.7125C2.51712 10.8608 2.33337 9.95667 2.33337 9C2.33337 8.04333 2.51712 7.13917 2.88462 6.2875C3.25212 5.43583 3.75379 4.69208 4.38962 4.05625C5.02546 3.42042 5.76921 2.91875 6.62087 2.55125C7.47254 2.18375 8.37671 2 9.33337 2C10.29 2 11.1942 2.18375 12.0459 2.55125C12.8975 2.91875 13.6413 3.42042 14.2771 4.05625C14.913 4.69208 15.4146 5.43583 15.7821 6.2875C16.1496 7.13917 16.3334 8.04333 16.3334 9C16.3334 9.95667 16.1496 10.8608 15.7821 11.7125C15.4146 12.5642 14.913 13.3079 14.2771 13.9437C13.6413 14.5796 12.8975 15.0812 12.0459 15.4487C11.1942 15.8162 10.29 16 9.33337 16ZM9.33337 14.95C10.9667 14.95 12.3667 14.3667 13.5334 13.2C14.7 12.0333 15.2834 10.6333 15.2834 9C15.2834 7.36667 14.7 5.96667 13.5334 4.8C12.3667 3.63333 10.9667 3.05 9.33337 3.05C7.70004 3.05 6.30004 3.63333 5.13337 4.8C3.96671 5.96667 3.38337 7.36667 3.38337 9C3.38337 10.6333 3.96671 12.0333 5.13337 13.2C6.30004 14.3667 7.70004 14.95 9.33337 14.95Z" fill="#142635" style="fill:#142635;fill:color(display-p3 0.0784 0.1490 0.2078);fill-opacity:1;"/>
</g>
<defs>
<clipPath id="clip0_943_151">
<rect width="18" height="18" fill="white" style="fill:white;fill-opacity:1;" transform="translate(0.333374)"/>
</clipPath>
</defs>
</svg>
