<svg width="14" height="12" viewBox="0 0 14 12" fill="none" xmlns="http://www.w3.org/2000/svg">
<g clip-path="url(#clip0_953_147)">
<g clip-path="url(#clip1_953_147)">
<path d="M13.2823 3.4154C13.383 3.69564 13.0546 4.33932 12.297 5.34644C12.192 5.48656 12.0496 5.67266 11.8701 5.90473C11.5286 6.34261 11.3315 6.62942 11.279 6.76516C11.2045 6.94469 11.2352 7.12203 11.3709 7.29718C11.4454 7.38913 11.6227 7.56866 11.903 7.83577H11.9095L11.9161 7.84233L11.9227 7.8489L11.9358 7.86204C12.5532 8.43566 12.9714 8.91951 13.1903 9.3136C13.2035 9.33549 13.2177 9.36286 13.233 9.3957C13.2483 9.42854 13.2637 9.48656 13.279 9.56976C13.2943 9.65295 13.2932 9.72739 13.2757 9.79307C13.2582 9.85875 13.2035 9.91896 13.1115 9.9737C13.0195 10.0284 12.8904 10.0558 12.724 10.0558L11.0425 10.0821C10.9374 10.104 10.8148 10.093 10.6747 10.0492C10.5346 10.0054 10.4207 9.95728 10.3332 9.90473L10.2018 9.82591C10.0704 9.73396 9.91719 9.59384 9.74204 9.40555C9.56689 9.21726 9.41692 9.04759 9.29212 8.89652C9.16733 8.74545 9.03378 8.61847 8.89147 8.51557C8.74916 8.41267 8.62546 8.37873 8.52037 8.41376C8.50723 8.41814 8.48972 8.4258 8.46782 8.43675C8.44593 8.4477 8.40871 8.47944 8.35616 8.53199C8.30362 8.58453 8.25655 8.64912 8.21495 8.72575C8.17335 8.80238 8.13613 8.91622 8.10329 9.06729C8.07045 9.21836 8.05622 9.38804 8.0606 9.57632C8.0606 9.64201 8.05293 9.70221 8.03761 9.75695C8.02228 9.81168 8.00586 9.85219 7.98835 9.87846L7.96207 9.9113C7.88326 9.9945 7.76722 10.0427 7.61396 10.0558H6.85863C6.54773 10.0733 6.22808 10.0372 5.89968 9.94742C5.57127 9.85766 5.28337 9.74162 5.03597 9.59931C4.78857 9.457 4.56306 9.3125 4.35945 9.16581C4.15583 9.01913 4.00148 8.89324 3.89639 8.78815L3.73219 8.63051C3.6884 8.58672 3.62819 8.52104 3.55157 8.43347C3.47494 8.34589 3.3184 8.14666 3.08194 7.83577C2.84549 7.52487 2.61342 7.19428 2.38572 6.84398C2.15802 6.49367 1.88982 6.03171 1.58112 5.4581C1.27242 4.88448 0.986705 4.28897 0.723979 3.67156C0.697707 3.6015 0.68457 3.54239 0.68457 3.49422C0.68457 3.44606 0.691138 3.41103 0.704275 3.38913L0.730547 3.34972C0.796229 3.26653 0.921024 3.22493 1.10493 3.22493L2.9046 3.21179C2.95715 3.22055 3.0075 3.23478 3.05567 3.25448C3.10384 3.27419 3.13887 3.2928 3.16076 3.31031L3.1936 3.33002C3.26366 3.37818 3.31621 3.44824 3.35124 3.5402C3.43881 3.75914 3.53952 3.98574 3.65337 4.22C3.76722 4.45427 3.85698 4.6327 3.92267 4.75531L4.02776 4.94578C4.15474 5.20851 4.27735 5.4362 4.39557 5.62887C4.5138 5.82153 4.61998 5.97151 4.71413 6.07879C4.80827 6.18607 4.89913 6.27036 4.9867 6.33166C5.07428 6.39296 5.14872 6.42361 5.21002 6.42361C5.27132 6.42361 5.33044 6.41267 5.38736 6.39077C5.39612 6.38639 5.40707 6.37545 5.4202 6.35793C5.43334 6.34042 5.45961 6.29225 5.49902 6.21343C5.53843 6.13462 5.56799 6.03171 5.58769 5.90473C5.60739 5.77775 5.62819 5.60041 5.65009 5.37271C5.67198 5.14502 5.67198 4.87134 5.65009 4.55169C5.64133 4.37654 5.62163 4.21672 5.59097 4.07222C5.56032 3.92772 5.52967 3.82701 5.49902 3.77008L5.45961 3.69127C5.35014 3.54239 5.16404 3.44824 4.90132 3.40884C4.8444 3.40008 4.85534 3.34753 4.93416 3.2512C5.0086 3.168 5.0918 3.10232 5.18375 3.05416C5.41582 2.94031 5.93909 2.88776 6.75354 2.89652C7.11259 2.9009 7.40816 2.92936 7.64024 2.98191C7.72781 3.0038 7.80115 3.03336 7.86027 3.07058C7.91938 3.1078 7.96426 3.16034 7.99492 3.22821C8.02557 3.29608 8.04856 3.36614 8.06388 3.43839C8.07921 3.51064 8.08687 3.61026 8.08687 3.73724C8.08687 3.86423 8.08468 3.98464 8.0803 4.09849C8.07592 4.21234 8.07045 4.36669 8.06388 4.56155C8.05731 4.7564 8.05403 4.93702 8.05403 5.10342C8.05403 5.15158 8.05184 5.24354 8.04746 5.37928C8.04308 5.51502 8.04199 5.62011 8.04418 5.69455C8.04637 5.76899 8.05403 5.85766 8.06716 5.96056C8.0803 6.06346 8.10548 6.14885 8.1427 6.21672C8.17992 6.28459 8.22918 6.33823 8.29048 6.37764C8.32551 6.38639 8.36273 6.39515 8.40214 6.40391C8.44155 6.41267 8.49847 6.38858 8.57291 6.33166C8.64735 6.27474 8.73055 6.1992 8.8225 6.10506C8.91446 6.01092 9.0283 5.86423 9.16404 5.66499C9.29979 5.46576 9.44866 5.2304 9.61068 4.95892C9.8734 4.50353 10.1077 4.01092 10.3135 3.48109C10.331 3.4373 10.3529 3.39898 10.3792 3.36614C10.4054 3.3333 10.4295 3.31031 10.4514 3.29718L10.4777 3.27747C10.4864 3.27309 10.4974 3.26762 10.5105 3.26105C10.5237 3.25448 10.5521 3.24792 10.5959 3.24135C10.6397 3.23478 10.6835 3.23369 10.7273 3.23806L12.6189 3.22493C12.7897 3.20303 12.9298 3.20851 13.0393 3.24135C13.1487 3.27419 13.2166 3.31031 13.2429 3.34972L13.2823 3.4154Z" fill="#333333" style="fill:#333333;fill:color(display-p3 0.2000 0.2000 0.2000);fill-opacity:1;"/>
</g>
</g>
<defs>
<clipPath id="clip0_953_147">
<rect width="12.86" height="12" fill="white" style="fill:white;fill-opacity:1;" transform="translate(0.560059)"/>
</clipPath>
<clipPath id="clip1_953_147">
<rect width="12.86" height="12" fill="white" style="fill:white;fill-opacity:1;" transform="matrix(1 0 0 -1 0.560059 12)"/>
</clipPath>
</defs>
</svg>
