<svg width="20" height="21" viewBox="0 0 20 21" fill="none" xmlns="http://www.w3.org/2000/svg">
<g clip-path="url(#clip0_920_408)">
<path d="M12.5316 4.66658C13.3456 4.82539 14.0936 5.22347 14.68 5.80986C15.2664 6.39626 15.6645 7.14431 15.8233 7.95825M12.5316 1.33325C14.2227 1.52112 15.7996 2.2784 17.0035 3.48076C18.2074 4.68312 18.9666 6.25909 19.1566 7.94992M18.3233 14.5999V17.0999C18.3243 17.332 18.2767 17.5617 18.1837 17.7744C18.0908 17.987 17.9544 18.1779 17.7834 18.3348C17.6124 18.4917 17.4105 18.6112 17.1906 18.6855C16.9707 18.7599 16.7378 18.7875 16.5066 18.7666C13.9423 18.488 11.4791 17.6117 9.31497 16.2083C7.3015 14.9288 5.59442 13.2217 4.31498 11.2083C2.90662 9.03425 2.03018 6.55908 1.75664 3.98325C1.73582 3.75281 1.7632 3.52055 1.83706 3.30127C1.91091 3.08199 2.02962 2.88049 2.18561 2.7096C2.34161 2.53871 2.53148 2.40218 2.74313 2.30869C2.95479 2.2152 3.18359 2.1668 3.41498 2.16659H5.91498C6.3194 2.1626 6.71147 2.30582 7.01811 2.56953C7.32475 2.83324 7.52504 3.19946 7.58164 3.59992C7.68716 4.39997 7.88285 5.18552 8.16498 5.94159C8.27709 6.23985 8.30136 6.56401 8.2349 6.87565C8.16843 7.18729 8.01403 7.47334 7.78997 7.69992L6.73164 8.75825C7.91794 10.8445 9.64535 12.572 11.7316 13.7583L12.79 12.6999C13.0165 12.4759 13.3026 12.3215 13.6142 12.255C13.9259 12.1885 14.25 12.2128 14.5483 12.3249C15.3044 12.607 16.0899 12.8027 16.89 12.9083C17.2948 12.9654 17.6645 13.1693 17.9288 13.4812C18.193 13.7931 18.3334 14.1912 18.3233 14.5999Z" stroke="#3877D3" style="stroke:#3877D3;stroke:color(display-p3 0.2196 0.4667 0.8275);stroke-opacity:1;" stroke-width="2" stroke-linecap="round" stroke-linejoin="round"/>
</g>
<defs>
<clipPath id="clip0_920_408">
<rect width="20" height="20" fill="white" style="fill:white;fill-opacity:1;" transform="translate(-0.0100098 0.5)"/>
</clipPath>
</defs>
</svg>
