<svg width="13" height="12" viewBox="0 0 13 12" fill="none" xmlns="http://www.w3.org/2000/svg">
<g clip-path="url(#clip0_953_146)">
<g clip-path="url(#clip1_953_146)">
<path d="M9.14524 6.23969C9.2766 6.16525 9.34228 6.04703 9.34228 5.88501C9.34228 5.723 9.2766 5.60477 9.14524 5.53033L5.78235 3.42852C5.64661 3.34095 5.5043 3.33657 5.35542 3.41539C5.21092 3.49421 5.13867 3.61681 5.13867 3.7832V7.98682C5.13867 8.15321 5.21092 8.27582 5.35542 8.35463C5.42548 8.38966 5.49335 8.40718 5.55903 8.40718C5.64661 8.40718 5.72105 8.38528 5.78235 8.3415L9.14524 6.23969ZM12.6986 4.89979C12.6986 4.89979 12.6997 4.9589 12.7019 5.07713C12.7041 5.19536 12.7052 5.46465 12.7052 5.88501C12.7052 6.30537 12.703 6.63378 12.6986 6.87023C12.6942 7.10669 12.6756 7.40554 12.6428 7.76678C12.6099 8.12803 12.5607 8.45097 12.495 8.73559C12.4249 9.05524 12.2739 9.32453 12.0418 9.54347C11.8097 9.76241 11.5382 9.88939 11.2273 9.92442C10.2553 10.0339 8.78618 10.0886 6.82012 10.0886C4.85405 10.0886 3.38498 10.0339 2.41289 9.92442C2.102 9.88939 1.82942 9.76241 1.59516 9.54347C1.36089 9.32453 1.20873 9.05524 1.13867 8.73559C1.07737 8.45097 1.0303 8.12803 0.997456 7.76678C0.964615 7.40554 0.946006 7.10669 0.941627 6.87023C0.937248 6.63378 0.935059 6.30537 0.935059 5.88501C0.935059 5.46465 0.937248 5.13624 0.941627 4.89979C0.946006 4.66334 0.964615 4.36449 0.997456 4.00324C1.0303 3.64199 1.07956 3.31906 1.14524 3.03444C1.2153 2.71479 1.36637 2.44549 1.59844 2.22655C1.83052 2.00762 2.102 1.88063 2.41289 1.8456C3.38498 1.73613 4.85405 1.6814 6.82012 1.6814C8.78618 1.6814 10.2553 1.73613 11.2273 1.8456C11.5382 1.88063 11.8108 2.00762 12.0451 2.22655C12.2793 2.44549 12.4315 2.71479 12.5016 3.03444C12.5629 3.31906 12.6099 3.64199 12.6428 4.00324C12.6756 4.36449 12.6942 4.66334 12.6986 4.89979Z" fill="#333333" style="fill:#333333;fill:color(display-p3 0.2000 0.2000 0.2000);fill-opacity:1;"/>
</g>
</g>
<defs>
<clipPath id="clip0_953_146">
<rect width="12.02" height="12" fill="white" style="fill:white;fill-opacity:1;" transform="translate(0.810059)"/>
</clipPath>
<clipPath id="clip1_953_146">
<rect width="12.02" height="12" fill="white" style="fill:white;fill-opacity:1;" transform="matrix(1 0 0 -1 0.810059 12)"/>
</clipPath>
</defs>
</svg>
