<svg width="20" height="21" viewBox="0 0 20 21" fill="none" xmlns="http://www.w3.org/2000/svg">
<path d="M18.0165 4.19067H1.98347C0.889731 4.19067 0 5.08036 0 6.17415V15.2999C0 16.3936 0.889731 17.2834 1.98347 17.2834H18.0165C19.1102 17.2834 19.9999 16.3936 19.9999 15.2999V6.17415C20 5.08036 19.1103 4.19067 18.0165 4.19067ZM18.6777 6.17415V15.2999C18.6777 15.4042 18.6483 15.4995 18.605 15.5872L13.9308 10.9126L18.6764 6.16702C18.6764 6.16965 18.6777 6.17155 18.6777 6.17415ZM1.32232 15.2999V6.17415C1.32232 6.17155 1.32365 6.16969 1.32365 6.16706L6.06925 10.9127L1.39466 15.5872C1.3517 15.4994 1.32232 15.4042 1.32232 15.2999ZM10.2041 12.7696C10.095 12.8787 9.90505 12.8787 9.79595 12.7696L2.53971 5.51299H17.4606L10.2041 12.7696ZM7.00417 11.8476L8.86103 13.7045C9.16547 14.0089 9.56997 14.1765 10 14.1765C10.43 14.1765 10.8345 14.0089 11.139 13.7045L12.9959 11.8476L17.109 15.9611H2.89067L7.00417 11.8476Z" fill="#3877D3" style="fill:#3877D3;fill:color(display-p3 0.2196 0.4667 0.8275);fill-opacity:1;"/>
</svg>
